<svg width="167" height="35" viewBox="0 0 167 35" fill="none" xmlns="http://www.w3.org/2000/svg">
<g clip-path="url(#clip0_306_82)">
<g clip-path="url(#clip1_306_82)">
<path d="M35.5525 -0.636719H-0.0471191V35.0372H35.5525V-0.636719Z" fill="#6FC67B"/>
<path d="M3.80792 41.7574C4.34726 39.5451 5.43244 37.253 6.42177 34.9951C4.97595 37.1309 4.00124 39.4051 3.80792 41.7574Z" fill="white"/>
<path d="M38.4425 22.4751C37.7927 22.9146 37.1429 23.3656 36.5029 23.8165C35.187 24.6207 33.8711 25.3923 32.5325 26.1167L32.0127 26.3983C32.4091 26.216 32.8006 26.0234 33.1872 25.8204C35.0678 24.9229 36.8326 23.7996 38.4425 22.4751Z" fill="white"/>
<path d="M34.0189 2.20572C30.816 1.89347 27.643 1.3257 24.5302 0.507812C27.9839 2.16828 31.6943 3.32897 34.0189 2.20572Z" fill="white"/>
<path d="M36.4167 -0.813756C36.342 -0.892795 36.2815 -0.984225 36.238 -1.08398C36.1313 -0.532267 35.9527 0.00300467 35.7068 0.508103C35.3548 1.25264 34.7592 1.85409 34.0189 2.21253C34.8101 2.29229 35.6077 2.36067 36.4167 2.41602C38.1126 2.55745 39.7617 3.04495 41.2626 3.84857C41.8725 4.18477 42.4567 4.56565 43.0106 4.98811C42.1139 4.09113 41.1977 3.2381 40.2489 2.39973C39.0143 1.30252 37.7293 0.244383 36.4167 -0.813756Z" fill="white"/>
<path d="M17.9476 9.06152C20.8116 9.76152 23.7423 10.2385 26.6323 10.9922C24.2897 10.0383 21.658 9.52711 18.9256 9.18037C18.6007 9.13804 18.2758 9.10059 17.9476 9.06152Z" fill="white"/>
<path d="M42.5184 42.334C45.2681 40.4294 48.356 39.0695 51.6156 38.3277C51.9292 38.2544 52.2443 38.1877 52.5595 38.1242C50.4873 38.1686 48.4143 38.1039 46.349 37.9305C45.5833 37.9055 44.8217 37.8074 44.0746 37.6374C44.9751 36.2252 46.1618 35.0183 47.5576 34.0951C48.8962 33.1949 50.3826 32.5356 51.9438 31.9788C55.4739 30.8833 59.0462 29.9212 62.3829 28.3974C57.5711 29.5858 52.4035 29.5516 47.4488 29.1593C45.5887 29.0698 43.727 28.9965 41.8832 29.0405C40.0483 29.0653 38.2188 29.2434 36.4134 29.5728C35.01 29.7324 33.6163 29.9682 32.2384 30.2793C30.1266 30.7416 28.0147 31.2951 25.8557 31.6777C23.6984 32.0879 21.4907 32.4705 19.2147 32.6284C18.9597 32.4851 19.3365 32.2279 19.8889 31.9088C22.1421 30.8963 24.3059 29.9944 26.3999 29.0974C28.3114 28.2835 30.1823 27.3827 32.0126 26.3951C30.9749 26.8746 29.9083 27.2884 28.8188 27.634C27.3123 28.1109 25.7693 28.4632 24.2052 28.6872C25.6234 27.5819 27.1147 26.6653 28.5687 25.6919C30.0226 24.7184 31.4424 23.6928 32.7209 22.3726C33.642 21.417 34.3877 20.2807 34.7434 19.0695C35.1319 17.8274 35.0151 16.4817 34.4185 15.3254C33.5689 13.7105 31.8648 12.8298 30.1623 12.0956C29.0027 11.6648 27.8211 11.2958 26.6225 10.9902C27.659 11.4041 28.6481 11.9286 29.5726 12.5547C30.7952 13.3868 31.8629 14.427 32.7274 15.6281C34.5712 18.1221 34.1765 20.1619 32.6364 21.9558C31.8664 22.8528 30.8105 23.6879 29.6051 24.4905C28.3997 25.293 27.0416 26.0467 25.6673 26.807C23.0681 28.3909 20.2317 29.7112 18.2465 32.2051C15.6911 35.4365 12.8531 40.5725 16.1931 43.9081C17.6357 45.2723 17.6438 45.5702 16.1509 46.0667C16.0355 46.1042 15.9186 46.1449 15.8 46.1872H30.1574C29.787 46.14 29.4183 46.0879 29.0528 46.0244C27.9416 45.8307 26.7914 45.6012 25.4788 45.4009C23.9209 45.1877 22.2152 44.9972 20.6199 44.6879C19.101 44.2419 17.1126 43.9488 16.2613 42.334C15.1242 39.9849 16.12 37.0498 18.1068 35.583C20.3811 33.9681 22.9316 33.2323 25.5487 32.6528C27.8328 32.1563 30.1184 31.72 32.4058 31.2316C33.9328 30.906 35.4615 30.5626 36.995 30.167C39.1166 29.7193 41.2074 29.7893 43.2997 29.9716C45.3921 30.1539 47.4861 30.4421 49.6159 30.4421C49.3615 30.9952 49.0767 31.5338 48.763 32.0553C46.2076 35.1386 42.944 37.193 41.248 40.8656C40.8159 42.1842 40.3902 43.6526 40.7606 45.0981C40.368 45.6568 39.7768 46.0436 39.1085 46.1791H54.1612C50.5613 45.7053 46.9435 45.2739 43.2283 44.9679C42.377 44.8295 41.5258 43.0681 42.5184 42.334Z" fill="white"/>
<path d="M65.723 -100.336C67.1428 -100.189 68.561 -99.9696 69.9093 -100.482C72.4631 -101.658 74.458 -103.712 76.8947 -105.327C78.4332 -106.444 79.8903 -107.474 81.0113 -108.181C81.4141 -108.436 81.7753 -108.647 82.0948 -108.816V-110.167C81.3849 -109.604 80.558 -108.962 79.658 -108.282C75.7251 -105.767 72.0342 -102.096 67.4937 -100.777C67.7796 -102.218 68.0801 -103.784 68.4684 -105.356C67.903 -104.38 67.3166 -103.432 66.7854 -102.538C66.0755 -101.511 64.0887 -101.804 62.6185 -101.016C61.7234 -100.447 60.5976 -99.7612 59.9884 -99.5512C59.6895 -99.1654 59.4052 -99.6049 59.4052 -99.753C60.0079 -101.869 60.1249 -104.038 60.1574 -106.172C59.7642 -104.635 59.1469 -103.292 58.7051 -102.265C55.5941 -98.9733 52.0007 -96.4224 48.2058 -94.1856C51.3509 -95.4993 54.6259 -96.564 57.5663 -97.7019C58.5881 -97.8647 59.2314 -97.5977 60.0713 -97.0393C64.0903 -94.6121 67.9225 -91.9765 71.4786 -88.8835C70.3414 -89.1782 69.4918 -88.2975 68.9232 -87.5633C66.1177 -84.3254 62.6234 -82.6437 58.8691 -81.7207C65.4094 -82.5884 71.6654 -81.9942 75.8697 -75.3898C77.4308 -72.8942 75.1598 -70.2521 72.7474 -70.2521C69.1279 -70.0323 65.5897 -69.6465 62.0109 -69.2754C60.8196 -69.1549 59.6213 -69.0377 58.4159 -68.9237C49.9002 -68.9237 39.2466 -68.7789 33.1433 -75.8065C31.7609 -77.76 31.0802 -80.1482 31.8437 -82.4175C32.2385 -82.2677 32.6284 -81.7891 35.5509 -79.4612C36.7819 -79.1791 38.0378 -79.0199 39.3002 -78.9858C40.5809 -78.9544 41.8623 -79.0088 43.1357 -79.1486C46.5115 -79.261 50.2836 -80.1417 54.0979 -80.9003C51.1186 -80.5665 48.0872 -80.4851 45.194 -80.3044C43.9187 -80.2865 42.6614 -80.293 41.4121 -80.3044C40.1629 -80.3158 38.9217 -80.35 37.692 -80.3744C36.5548 -80.3744 34.711 -81.4017 34.9953 -82.2824C36.1324 -85.771 38.3418 -88.3349 41.0872 -90.3454C38.6212 -89.0886 36.1422 -87.8531 33.7184 -86.5393C35.2796 -95.6393 43.2267 -101.217 47.3432 -109.289C47.7688 -110.317 48.0515 -111.344 47.9102 -112.373C47.6275 -114.868 44.9308 -117.657 46.2061 -118.684C47.1678 -119.488 48.4105 -119.765 49.7459 -119.651C47.725 -120.362 45.6553 -121.116 43.5126 -121.473C42.6614 -121.473 42.0928 -122.207 41.5811 -122.759C41.248 -123.162 41.2367 -123.452 41.1424 -124.531C41.1424 -124.79 41.1197 -125.065 41.1018 -125.345H40.5349C40.3513 -124.325 39.9647 -123.377 39.2548 -122.643C36.3306 -119.723 32.4757 -119.102 29.0918 -120.538C29.6181 -119.713 29.9382 -118.884 29.9593 -118.119C30.008 -116.247 28.0407 -115.654 25.6657 -115.744C23.2907 -115.834 20.5615 -116.742 18.7583 -117.15C17.1841 -117.85 17.0119 -118.23 17.5902 -119.615C17.8323 -119.985 18.0349 -120.379 18.1946 -120.79C17.5439 -119.768 16.6317 -118.94 15.5531 -118.391C14.7019 -117.951 12.9977 -118.979 12.9977 -119.566C13.2447 -121.971 15.4962 -123.721 17.4716 -125.349H16.882C15.9202 -123.81 14.1918 -122.698 13.1586 -121.196C12.1416 -120.131 11.9174 -119.929 11.7566 -119.819C10.2149 -121.194 9.7682 -123.4 10.1483 -125.354H9.24836C9.34421 -125.103 9.44168 -124.865 9.54565 -124.642C9.9539 -123.405 10.2609 -122.137 10.4635 -120.851C10.2618 -118.889 9.80919 -116.96 9.11678 -115.114C10.0915 -116.372 11.175 -117.574 12.0084 -118.695C12.8596 -119.723 14.1365 -117.961 15.3435 -117.763C16.2646 -117.346 16.6805 -117.185 18.3944 -116.623C19.4584 -116.12 20.594 -115.868 21.7701 -115.698C23.3621 -115.322 24.9233 -115.615 26.4812 -115.176C27.4738 -114.735 27.7581 -113.561 27.6184 -112.534C26.7964 -108.847 23.7195 -106.393 20.3876 -104.874L20.8084 -104.902C22.5093 -105.049 24.9233 -105.781 25.9159 -104.02C27.1944 -101.379 23.3621 -99.6244 21.3299 -98.2749C19.824 -97.3932 18.2331 -96.6662 16.5814 -96.1049C10.0216 -93.8437 2.63984 -93.8437 -4.17175 -93.4531C-5.46581 -93.383 -6.7262 -93.0142 -7.85452 -92.3754C-11.1604 -90.5163 -13.2901 -86.554 -13.8214 -82.59C-14.0864 -83.0046 -14.2572 -83.4726 -14.3217 -83.9607C-14.5995 -84.83 -14.7343 -85.5284 -14.7051 -88.8298C-14.5188 -90.4232 -14.0698 -91.9745 -13.3762 -93.4205C-12.7033 -94.813 -11.8273 -96.0974 -10.777 -97.2314C-7.14786 -100.93 -2.46926 -104.152 2.63821 -104.3C5.31866 -104.363 7.96824 -104.401 10.6162 -104.463C9.24781 -105.149 8.10489 -106.215 7.32332 -107.533C6.82492 -108.378 6.61877 -109.365 6.73686 -110.339C4.33258 -106.621 0.922729 -103.75 -3.11581 -103.235C-4.71465 -103.042 -6.3363 -103.209 -7.86264 -103.724C-9.55051 -105.324 -9.21586 -107.394 -8.33862 -109.527C-9.57975 -108.161 -11.0759 -107.085 -12.8288 -106.953C-13.9659 -106.953 -14.5329 -107.98 -14.8172 -108.861C-16.6756 -114.359 -16.9112 -120.09 -18.9175 -125.349H-20.295C-18.0077 -120.017 -15.108 -114.709 -16.3783 -108.703C-16.7924 -106.753 -17.6626 -104.929 -18.9175 -103.382C-16.021 -105.172 -12.6127 -105.905 -9.70971 -103.961C-9.03722 -103.281 -8.41348 -102.553 -7.84315 -101.785C-7.43702 -101.514 -7.43864 -100.897 -7.57998 -100.891C-8.76429 -100.062 -9.84573 -99.095 -10.8014 -98.0096C-13.5224 -94.9751 -14.8107 -91.1935 -15.35 -87.2133C-15.5822 -85.4321 -15.6967 -83.6375 -15.6928 -81.8412C-14.6694 -73.9198 -13.5338 -66.2882 -15.095 -58.0737C-15.2379 -57.193 -16.5148 -58.5133 -16.7991 -59.2475C-19.2115 -67.0272 -19.4958 -75.1 -21.4891 -83.0849C-21.8481 -84.9098 -21.4468 -86.4417 -21.26 -88.1851C-20.9449 -90.1549 -20.966 -92.0921 -21.7019 -93.4758C-22.1892 -95.3561 -25.1718 -96.5298 -24.1776 -98.1447C-23.7251 -98.8765 -23.211 -99.5681 -22.6408 -100.212C-26.2538 -98.0861 -30.7537 -97.4789 -34.5388 -98.4377C-35.8156 -98.7307 -34.8231 -102.841 -33.6875 -104.896C-29.9739 -111.617 -27.027 -118.244 -24.7966 -125.358H-25.7193C-27.5063 -117.382 -31.1777 -109.683 -36.2413 -103.429C-37.2114 -105.458 -37.9273 -107.6 -38.3726 -109.805C-38.2183 -106.51 -37.8463 -103.256 -36.5142 -100.173C-36.3517 -99.434 -36.2137 -98.5858 -36.2348 -98.0763C-37.5263 -96.3719 -39.937 -94.9068 -41.6395 -95.9324C-43.394 -96.8114 -45.4425 -97.7133 -47.3075 -98.7958C-45.6356 -97.1545 -44.1184 -95.3622 -42.7751 -93.4417C-42.2081 -92.854 -41.6379 -91.8268 -42.2081 -91.0926C-43.2007 -89.6275 -44.372 -88.413 -45.7301 -87.5763C-49.4453 -82.2856 -55.5486 -79.204 -61.6503 -78.6228C-61.509 -79.2105 -61.509 -79.7965 -61.2247 -80.0879C-58.4939 -82.5298 -57.5614 -84.9521 -57.7271 -87.3012C-58.0244 -86.4172 -58.5296 -85.5593 -59.0576 -84.7047C-61.0281 -80.3093 -64.3145 -78.0693 -68.0769 -77.4263C-64.9403 -77.3181 -61.8003 -77.3725 -58.6693 -77.5891C-58.2437 -77.5891 -57.961 -77.1496 -57.5321 -76.8565C-55.971 -75.8293 -55.404 -73.4803 -53.3084 -73.184C-51.6839 -72.8242 -49.8612 -72.5068 -48.5583 -72.1877C-48.0271 -72.16 -46.7503 -71.8621 -47.0345 -71.2793C-47.4602 -70.5789 -48.0567 -69.9985 -48.7679 -69.5928C-48.5372 -69.6889 -48.3065 -69.7849 -48.0742 -69.8777C-44.6189 -71.2744 -41.0726 -72.1568 -37.523 -71.5675C-35.5362 -71.2744 -34.9693 -68.6372 -34.8279 -66.5763C-34.671 -65.1698 -34.8274 -63.7458 -35.2861 -62.4072C-34.7256 -63.1292 -34.0419 -63.7459 -33.2668 -64.2289C-33.0459 -62.4072 -32.617 -60.5416 -32.2222 -58.694C-32.3035 -60.1444 -32.2726 -61.5949 -32.2726 -62.9005C-32.4155 -64.9549 -33.8337 -66.8644 -33.5511 -69.0654C-33.5511 -69.3584 -33.2668 -69.5049 -33.1238 -69.653C-31.137 -70.2391 -29.1503 -69.9461 -27.1635 -70.9733C-26.4536 -71.4144 -25.461 -71.1214 -25.1767 -70.5337C-21.4858 -64.0758 -23.7585 -53.5075 -15.6538 -50.7677C-14.4057 -50.4012 -13.1189 -50.1827 -11.82 -50.1165C-9.42217 -50.1393 -7.29568 -51.1649 -4.87354 -51.0184C-6.50474 -49.3184 -8.54162 -48.0634 -10.7916 -47.3719C-7.91077 -48.0233 -5.19244 -49.2557 -2.80228 -50.994C-1.70086 -51.2724 -0.78138 -51.4661 0.500359 -51.6858C2.49689 -51.6028 6.16179 -52.6219 5.38527 -50.1654C5.06037 -47.1977 3.34975 -44.4107 0.264801 -44.6191C-1.28846 -43.921 -2.90385 -43.3711 -4.56001 -42.9765C-6.41399 -42.5216 -8.22256 -41.8977 -9.96313 -41.1126C-11.6434 -40.3514 -13.4181 -39.8198 -15.2396 -39.5319C-13.2603 -39.1689 -11.3149 -38.6402 -9.4238 -37.9512C-8.78537 -36.7775 -8.32401 -35.1626 -8.09332 -33.3833C-7.85389 -31.5367 -7.87193 -29.6656 -8.14693 -27.824C-9.37092 -28.9828 -10.7471 -29.9687 -12.2375 -30.7542C-13.7439 -31.5325 -15.3915 -31.9982 -17.0818 -32.1233C-17.3807 -32.1558 -17.6812 -32.1835 -17.9834 -32.2096C-17.2767 -32.1314 -16.5749 -32.0468 -15.8861 -31.9442C-14.617 -31.494 -13.4084 -30.8882 -12.2878 -30.1405C-10.0343 -28.637 -8.09709 -26.7051 -6.58578 -24.4542C-6.08286 -23.7746 -5.67309 -23.0305 -5.36739 -22.2419C-5.39663 -22.4226 -5.41775 -22.5837 -5.42587 -22.7107C-5.48435 -23.5589 -4.92552 -23.1079 -1.90717 -20.8012C0.22744 -21.2261 2.35555 -21.0796 4.34232 -20.0507C10.587 -16.6712 17.5447 -15.7905 24.3531 -14.6168C22.5076 -13.0035 19.9539 -12.4158 17.5448 -12.8603C11.3001 -13.741 5.48111 -15.0628 -0.904854 -13.741C-1.89906 -13.4479 -3.31725 -13.1549 -3.60155 -13.8875C-4.17012 -15.0628 -4.31145 -16.8177 -4.54051 -18.2503C-4.61362 -18.6524 -4.71596 -19.1293 -4.82317 -19.621C-4.80927 -19.0131 -4.92502 -18.4092 -5.1627 -17.8498C-6.01395 -15.9435 -8.14368 -19.3149 -9.84617 -19.4647C-9.9875 -19.4647 -10.2718 -19.1717 -10.4781 -18.9844C-10.9476 -17.7163 -11.1507 -18.2714 -12.218 -22.5935C-12.6951 -24.0456 -13.4905 -25.3722 -14.5459 -26.4761C-15.5754 -27.5392 -16.7856 -28.4101 -18.1198 -29.0482C-21.3201 -30.6142 -24.8502 -30.4758 -28.3819 -30.6191C-30.7256 -29.5049 -32.638 -27.6485 -33.824 -25.3365C-34.9612 -23.8714 -37.3638 -25.4049 -38.5156 -26.3475C-39.2775 -27.7149 -39.63 -28.6917 -40.1596 -32.4196C-40.1596 -34.067 -39.9712 -35.9537 -39.31 -37.2137C-38.6488 -38.4737 -37.6562 -39.4277 -36.2364 -39.5742C-32.8948 -39.9584 -29.4735 -40.2612 -26.0621 -40.3263C-29.1145 -41.4023 -31.7316 -43.2972 -33.257 -46.1786C-35.1025 -49.7014 -28.1479 -49.9961 -27.0124 -49.4084C-24.0277 -47.9826 -20.8047 -47.1247 -17.5074 -46.8786C-20.8896 -47.3328 -24.2637 -48.7817 -27.1537 -51.0233C-27.438 -51.1698 -28.7149 -50.5821 -29.1405 -51.0233C-30.3085 -51.93 -31.0428 -53.1396 -31.5026 -54.5135C-31.3661 -53.0924 -31.3856 -51.7216 -31.6943 -50.4437C-32.4058 -47.5135 -38.5075 -47.214 -41.9141 -49.27C-43.0512 -50.0042 -43.3323 -51.4726 -43.8814 -52.6089C-44.9747 -54.2547 -45.2427 -54.6112 -42.3494 -56.0698C-40.7834 -56.1496 -39.6674 -56.8056 -38.7463 -57.727C-38.9445 -57.5903 -39.1486 -57.4622 -39.3587 -57.3428C-41.2042 -56.3156 -43.6166 -55.8777 -45.6033 -56.1691C-48.0157 -56.5354 -50.152 -55.8012 -51.7066 -54.4061C-52.5307 -53.6816 -53.1753 -52.7749 -53.5895 -51.7578C-54.0036 -50.7407 -54.176 -49.641 -54.0931 -48.5456C-54.4992 -49.4003 -54.686 -50.3005 -55.3813 -50.6863C-56.5396 -49.2863 -58.0309 -47.3735 -59.964 -47.9465C-59.0706 -47.3051 -57.9448 -46.9242 -56.5314 -46.9242C-53.8348 -46.9242 -53.4091 -43.2549 -53.12 -40.901C-52.9828 -37.8323 -53.9386 -34.8147 -55.8167 -32.387C-56.2423 -33.2677 -56.5266 -34.2949 -57.3778 -34.8826C-58.4537 -35.6581 -59.6228 -36.2948 -60.8575 -36.7775L-60.0745 -36.2044C-56.7751 -33.6714 -58.5848 -29.4877 -61.2523 -26.6258C-62.0737 -25.7302 -63.0145 -24.9523 -64.0481 -24.3142C-68.8794 -21.2228 -75.842 -22.25 -79.3932 -26.7984C-80.597 -28.34 -80.6668 -30.0282 -80.5434 -31.7717C-80.4199 -33.5151 -80.0999 -35.3123 -80.5255 -37.0737C-80.8098 -37.9544 -81.2354 -38.8351 -82.0217 -39.3528C-82.5572 -40.0686 -83.0508 -40.8148 -83.5 -41.5879V-37.7917C-82.3466 -35.8138 -81.4531 -33.8603 -82.3628 -31.6431C-82.6312 -30.979 -83.0163 -30.3686 -83.5 -29.841V-26.2856C-78.5761 -23.821 -73.3744 -21.6689 -67.8949 -22.3558C-66.5781 -22.5145 -65.2931 -22.873 -64.0838 -23.4189C-62.8163 -24.0023 -61.6571 -24.7978 -60.6561 -25.7712C-57.5338 -28.8544 -53.9956 -31.9361 -52.8259 -36.32C-52.3479 -38.0468 -52.2596 -39.8586 -52.5676 -41.6237C-51.5572 -39.203 -51.4435 -36.8426 -51.8171 -34.5293C-52.1907 -32.2161 -53.0501 -29.9484 -53.9858 -27.7116C-54.98 -25.4782 -55.8313 -23.2772 -56.4015 -20.9282C-56.5412 -18.947 -56.3641 -16.5605 -56.6468 -14.4524C-57.68 -8.83933 -63.2683 -7.43282 -68.5577 -7.66561C-68.0411 -7.4898 -67.5245 -7.35304 -67.0437 -7.42467C-63.3528 -8.15886 -57.2511 -7.27816 -55.9726 -11.2405C-55.9726 -12.5623 -56.2212 -13.9558 -56.239 -15.3103C-56.2569 -16.5735 -56.0766 -17.8058 -55.3017 -18.9161C-55.3017 -18.9437 -55.3131 -18.9698 -55.3163 -18.9958C-55.6282 -21.0396 -55.3649 -23.1301 -54.556 -25.0321C-53.9517 -26.4272 -53.3929 -27.85 -52.9185 -29.294C-51.4987 -33.6291 -50.8456 -38.1677 -52.0673 -42.7861C-52.8129 -45.3435 -52.99 -45.9442 -53.2044 -47.1098C-53.2434 -48.0654 -53.2792 -49.6917 -52.5693 -49.5517C-51.2924 -49.1121 -51.0162 -46.8851 -50.4931 -45.2914C-49.8579 -42.34 -49.0083 -39.4147 -48.1506 -36.491C-48.8572 -39.4293 -49.3836 -42.4703 -50.3648 -44.9561C-50.8229 -46.4961 -51.2063 -47.9758 -51.3184 -49.2928C-51.3785 -50.5675 -51.4094 -51.8356 -51.4337 -53.0826C-51.4337 -54.2563 -50.0139 -55.8712 -48.737 -54.844C-47.7428 -53.8168 -46.4627 -53.5237 -45.1891 -52.9361C-43.4866 -52.0554 -43.4866 -49.7063 -42.2097 -48.2396C-42.0867 -48.0971 -41.9338 -47.9837 -41.7619 -47.9075C-41.59 -47.8312 -41.4035 -47.794 -41.2155 -47.7984C-36.5321 -49.1203 -33.694 -44.2756 -30.856 -41.487C-33.1969 -41.3405 -35.892 -40.6437 -37.9226 -39.2421C-38.9414 -38.5531 -39.758 -37.6039 -40.2879 -36.4926C-40.7312 -35.007 -40.8574 -33.4445 -40.6583 -31.9068C-40.2002 -28.0991 -40.3773 -27.0638 -41.4153 -26.1114C-44.3622 -27.2868 -45.964 -29.7547 -47.041 -32.6849C-46.5228 -30.8568 -46.0355 -29.0254 -45.6277 -27.1875L-45.6131 -27.2461C-43.88 -26.2122 -41.9985 -25.4517 -40.0345 -24.9914C-38.0412 -24.6056 -35.866 -24.1693 -33.4975 -24.1775C-31.834 -24.7407 -31.3726 -24.8384 -30.5084 -24.7033C-29.5759 -24.4607 -28.0147 -24.4607 -27.7321 -23.58C-26.8987 -21.3677 -28.6564 -19.3605 -30.5831 -18.0777C-29.2437 -18.8268 -28.0782 -19.8522 -27.1635 -21.0861C-26.3122 -22.1133 -24.8892 -22.2598 -23.752 -21.6721C-21.4777 -20.4984 -20.3405 -18.1493 -19.9198 -15.6489C-19.4942 -13.0084 -21.1967 -11.2454 -22.597 -9.38142C-23.4336 -8.35421 -24.1029 -7.83816 -25.7729 -10.5063C-26.0215 -10.6577 -26.3057 -10.8042 -26.5852 -10.6577C-27.0595 -10.4211 -27.5366 -10.1889 -28.0164 -9.96095C-27.2317 -9.98146 -26.4678 -9.70676 -25.8752 -9.19096C-23.0372 -6.69537 -24.3141 -2.29189 -26.8678 -0.0909576C-30.9129 3.43347 -35.996 3.90067 -41.0255 3.69881C-42.9191 3.61389 -44.7998 3.34125 -46.6398 2.88486C-48.0075 2.57344 -49.3984 2.37472 -50.7985 2.29067C-51.3411 2.31184 -51.8935 2.31672 -52.449 2.30858C-51.8301 2.33137 -51.2242 2.35579 -50.6361 2.37044C-48.9516 2.48427 -47.2817 2.7579 -45.6488 3.18765C-43.3534 3.74277 -41.1814 3.80951 -38.9883 3.80789C-36.7952 3.80626 -34.6021 3.73137 -32.4042 3.87788C-34.248 5.63928 -37.086 5.34299 -39.1118 6.75113C-40.3026 7.47556 -41.9303 7.52277 -44.2209 6.98882C-46.1136 6.28781 -48.1237 5.96002 -50.1406 6.02347C-51.987 6.10269 -53.8012 6.53537 -55.4853 7.29811C-62.5015 10.6288 -66.9023 17.9674 -67.7081 25.7114C-68.9086 28.6156 -69.3489 28.8728 -69.8427 28.0197C-71.7401 24.7444 -72.4111 20.9644 -71.5972 17.4188C-71.6882 17.6532 -71.7791 17.886 -71.8685 18.1204C-72.4354 19.877 -74.5652 21.3453 -76.409 20.3181C-77.2599 19.9004 -78.0205 19.3191 -78.6476 18.6072C-76.9922 21.1809 -74.8316 23.3151 -72.4533 25.0993C-70.6371 26.5025 -69.8882 29.8577 -72.1593 31.1779C-73.7091 32.0936 -75.4882 32.5455 -77.2862 32.4802C-78.9709 32.4265 -80.4622 31.9137 -81.2565 31.0379C-82.1284 30.177 -82.8827 29.2043 -83.5 28.1451V31.4416C-83.1469 32.6354 -82.7868 33.8292 -82.4197 35.023C-82.0298 36.2879 -81.6302 37.5511 -81.2354 38.816C-80.8847 39.8834 -80.8377 41.0276 -81.0997 42.1203C-81.3617 43.213 -81.9223 44.2109 -82.7186 45.0021C-83.0354 45.2707 -83.2953 45.5084 -83.5 45.7086V46.197H-79.3981C-79.5533 46.0004 -79.6929 45.7919 -79.8156 45.5735C-80.6668 43.9586 -78.9644 40.5823 -79.39 37.6472C-77.6752 37.8575 -75.9482 37.9521 -74.2208 37.9304C-72.5118 37.9125 -70.8093 37.7888 -69.1312 37.6049C-64.8912 38.1974 -57.3924 35.4365 -55.5226 40.6002C-55.5063 39.4181 -55.3619 38.2413 -55.0921 37.0904C-55.4284 37.7042 -55.8621 37.67 -56.806 37.3053C-59.2428 36.1658 -61.9346 37.1865 -64.347 36.4539C-63.4406 35.2268 -62.6483 33.919 -61.9801 32.547C-63.6598 35.0507 -66.1063 36.8723 -69.4317 37.2923C-70.7182 37.5728 -72.034 37.6953 -73.35 37.657C-76.0229 37.5762 -78.6249 36.776 -80.8829 35.3404C-81.2484 34.9204 -81.4742 34.3637 -81.471 34.0088C-81.2354 33.3739 -80.6587 32.9344 -80.3842 32.9344C-76.7648 32.7146 -72.2616 32.6593 -69.6461 30.2304C-68.6992 29.3404 -68.04 28.1866 -67.7536 26.9176C-66.3338 21.487 -65.0553 15.3221 -60.3734 11.7993C-59.5206 14.5879 -59.2363 17.523 -59.1177 20.5297C-59.0028 22.3649 -59.1119 24.2072 -59.4426 26.0158C-59.4539 26.0777 -59.4669 26.1395 -59.4783 26.2014L-59.2346 25.4493C-59.0591 24.9812 -58.711 24.5984 -58.2622 24.3797C-57.8134 24.161 -57.2981 24.1232 -56.8222 24.2739C-55.5454 24.7151 -54.6925 25.8888 -54.1255 27.2042C-53.3653 29.3367 -53.6853 31.6402 -54.1873 33.8786C-53.6626 32.2718 -53.0664 30.7042 -52.5628 29.2667C-52.1371 27.6535 -51.0016 25.8904 -49.2975 25.8904C-44.19 25.7439 -40.6421 31.4693 -40.6421 36.309C-40.5446 39.6153 -40.8435 42.9916 -40.3659 46.1807H-39.9955C-40.4244 44.2533 -40.1417 42.2509 -38.7966 40.859C-34.9644 36.6037 -32.1264 30.1442 -26.733 29.5581C-22.4751 29.117 -17.6503 31.0232 -14.2437 33.9535C-13.6768 34.393 -14.8123 36.0079 -15.8049 36.3009C-21.0569 38.0623 -26.3074 39.3842 -27.7223 45.5393L-28.0813 46.1725H-27.3568C-26.9978 43.296 -24.7495 40.6246 -22.7594 39.8237C-19.2115 38.3586 -14.9536 36.7421 -10.959 35.1028C-9.55444 34.3772 -8.18755 33.5806 -6.86356 32.7162C-2.89163 30.1295 0.729416 26.9746 4.06454 23.5251C1.08193 32.07 -3.00697 40.6979 -9.89328 46.1872H-9.31658C-4.37806 41.9025 -1.01369 36.2732 1.92993 30.2972C3.06709 27.8032 7.74894 24.2739 8.31589 26.4814C8.85198 29.086 7.72457 32.0163 6.42171 34.9953C9.73409 30.1116 15.519 25.9442 20.079 23.2337C21.5118 22.1039 23.6448 20.6111 22.7919 19.1428C21.8735 17.6131 20.4842 16.4237 18.833 15.7535C17.5025 15.1902 16.1152 14.9395 14.7035 14.793C15.0901 14.9135 15.4703 15.0437 15.8406 15.1788C18.115 15.913 22.3679 16.7937 21.658 19.5839C20.2382 25.013 13.8604 25.7472 10.0216 28.977C10.4473 28.0963 10.8729 27.2156 10.4473 26.4814C9.31009 24.2788 4.20262 25.7472 5.58183 22.2228C5.48436 21.6888 5.68418 21.3372 6.0432 19.9958C6.33236 18.4086 3.76888 17.3814 4.06129 16.9402C4.89317 15.6283 6.19369 14.6844 7.69695 14.3014C7.04303 14.1992 6.39705 14.0513 5.76378 13.8586C4.62662 13.5656 2.7828 13.2709 2.4985 11.6577C2.35718 9.74811 4.06129 8.42789 5.62082 8.13324C8.88609 7.40068 11.8654 8.7209 14.9325 8.75671C15.9414 8.85114 16.9502 8.94717 17.9493 9.06113C17.2653 8.89835 16.583 8.71602 15.9072 8.51416C14.34 8.06288 12.8174 7.46838 11.3586 6.73811C9.95177 5.95184 9.46442 5.44556 9.14278 4.73904C8.46535 3.43672 9.03392 1.82184 10.3108 1.08765C11.305 0.648117 12.2992 0.501602 13.2918 0.794624C20.8133 2.99719 27.7678 5.35277 35.4323 7.40068C36.0015 7.55461 36.5609 7.74326 37.1071 7.96556C35.7156 7.09302 34.1905 6.45561 32.5926 6.07881C25.9224 4.46556 19.8191 2.55602 14.0001 -0.672119C14.9959 -2.13724 16.8397 -2.13723 18.2595 -1.55281C20.308 -0.744194 22.4017 -0.0560532 24.5302 0.508118C22.5649 -0.455299 20.6567 -1.5315 18.8151 -2.71514C18.6011 -3.03773 18.5089 -3.42622 18.555 -3.81084C18.6012 -4.19545 18.7827 -4.55097 19.0669 -4.81351C21.3737 -4.63607 24.3531 -4.63607 25.3457 -6.98514C27.4754 -12.4158 29.3209 -22.9826 35.1399 -21.2228C36.2234 -20.9298 36.8196 -20.1565 37.1169 -19.0968C37.1169 -19.9807 37.1039 -20.7442 37.0682 -21.3009C36.844 -23.4172 39.8298 -25.1851 40.8159 -24.1579C42.0359 -22.8247 42.1545 -21.1561 41.8848 -19.4061C42.0164 -20.0084 42.1431 -20.6124 42.2357 -21.2228C42.3771 -22.6879 42.2357 -24.744 40.6746 -25.037C38.8291 -25.1851 36.5613 -23.2691 36.1259 -24.0065C35.3446 -25.5514 34.7045 -27.2021 33.9767 -28.8365C33.2489 -30.471 32.435 -32.0924 31.2995 -33.5575C31.0152 -33.997 31.1566 -34.5847 31.1793 -35.1072C31.2686 -35.6623 31.4912 -35.9326 32.6202 -36.7596C35.8417 -39.4293 41.2302 -40.4565 43.9301 -36.3477C45.1812 -34.4472 45.8979 -32.2438 46.0046 -29.9696C46.1362 -33.3572 45.4572 -36.6749 43.2202 -39.8705C48.4706 -43.0986 57.2706 -46.4749 62.4934 -41.3828C62.6559 -41.111 62.7387 -40.8424 62.9808 -39.9258C63.0961 -38.9882 62.6705 -37.961 61.9606 -37.6679C58.1284 -36.4942 55.5746 -34.1451 53.7146 -30.5751C52.7285 -29.1621 51.7327 -27.7572 50.8164 -26.3296C48.984 -23.4742 47.4634 -20.5196 46.9322 -17.1889C46.7078 -15.7995 46.6739 -14.3858 46.8315 -12.9872C47.0895 -11.3959 47.5622 -9.84718 48.2367 -8.38351C48.9169 -6.89954 49.7662 -5.49945 50.7677 -4.21119C48.4787 -3.32072 46.2061 -4.93723 44.6465 -6.55049C41.8085 -9.48072 42.0912 -13.5961 43.2819 -17.3354C43.5906 -18.4342 43.9122 -19.5298 44.2193 -20.6221C43.7547 -19.3198 43.2446 -18.0175 42.7572 -16.7379C42.3114 -15.4143 41.99 -14.0518 41.7971 -12.6682C41.3269 -14.0831 41.2022 -15.5903 41.4332 -17.0635C41.5275 -17.7456 41.6688 -18.4163 41.8117 -19.0854C39.8136 -13.9461 41.534 -9.13723 44.9601 -5.7577C46.1279 -4.61043 47.4581 -3.64175 48.9076 -2.88282C48.2472 -2.31576 47.4922 -1.86992 46.6772 -1.56583C47.8 -1.57236 48.9213 -1.64738 50.035 -1.79049C51.5994 -1.95328 53.1622 -2.14538 54.725 -1.99886C57.9042 -1.78724 61.3075 -1.26631 64.0757 0.442993C60.3393 -3.74398 57.3129 -8.39165 60.2565 -13.8924C62.6591 -13.4268 65.0943 -12.997 67.4742 -12.4175C65.0699 -13.9493 63.1059 -15.7612 62.1019 -18.2958C61.3936 -20.2054 66.7854 -22.2598 69.9077 -21.5256C73.2981 -20.7328 77.9523 -19.9417 82.0916 -18.5465V-19.6763C76.2303 -24.8189 70.2895 -29.0758 62.3862 -30.6256C61.3936 -30.9186 60.9664 -31.9458 60.9664 -32.8265C60.9664 -34.1484 60.9664 -35.7568 62.266 -36.5072C63.4032 -37.5035 64.1943 -38.6984 64.412 -39.3447C66.0933 -39.1037 67.8235 -38.8807 69.5844 -38.6365C67.5733 -39.737 65.9 -41.2591 64.7921 -43.3949C64.9351 -45.2296 66.2818 -46.6621 68.0964 -47.7756C69.9109 -48.8891 72.1901 -49.6884 74.1948 -50.2582C75.5659 -50.6603 76.9662 -51.0037 78.3747 -51.3114C78.7158 -51.3847 79.0586 -51.4579 79.4014 -51.5279C78.9262 -51.5867 78.4679 -51.7419 78.0546 -51.984C77.6412 -52.2261 77.2814 -52.55 76.9971 -52.9361C75.8599 -54.551 77.8483 -57.193 79.6938 -58.5133C80.3844 -59.0663 81.21 -59.4243 82.0851 -59.5503V-63.6982C80.3371 -59.967 77.4113 -56.8854 75.7495 -53.0875C74.8917 -51.5719 74.1721 -51.1258 70.9815 -50.1654C68.0574 -49.257 66.0706 -46.7614 63.3739 -45C61.8144 -43.9728 59.5433 -43.2386 58.6921 -45.1465C56.3739 -50.1703 58.9503 -55.461 62.7014 -59.0668C59.3448 -56.022 57.2126 -51.8542 56.7053 -47.3458C56.5623 -47.1977 56.2797 -47.1977 56.1887 -47.0203C55.638 -46.903 54.4781 -47.6161 52.3305 -48.7751C51.7375 -48.9656 51.1689 -49.2635 50.602 -49.2635C41.0937 -48.6758 31.7268 -49.41 22.2185 -49.9977C21.2243 -50.1442 21.0813 -52.4933 22.0755 -53.2258C27.7613 -57.4828 34.8491 -56.0161 41.378 -56.0161C42.9375 -56.0161 44.5003 -56.1626 45.6342 -57.3363C49.8937 -62.1793 54.0086 -68.0512 60.7422 -68.7317C62.1703 -68.8958 63.6169 -68.7555 64.987 -68.3198C66.4334 -67.8279 67.7337 -66.9806 68.7689 -65.8551C69.4788 -65.1226 68.202 -63.8007 67.3507 -62.9249C66.6392 -62.2737 65.8887 -61.6763 65.1284 -61.0772C65.4533 -61.3051 65.7782 -61.5184 66.1145 -61.7186C67.5765 -62.6319 69.0175 -63.5614 70.3479 -64.5577C74.341 -67.5498 77.2846 -71.1458 76.292 -76.723C78.3568 -75.8684 80.6636 -74.5644 82.0883 -72.7265V-73.5405C79.1252 -76.9428 74.0128 -79.2382 70.7557 -82.1489C69.9044 -83.0296 69.0532 -84.3498 69.9044 -85.6717C70.8987 -86.9919 72.6012 -86.8454 74.021 -86.6989C77.0669 -86.2203 79.5752 -84.6868 82.0883 -83.1875V-83.8533C74.0551 -87.2719 66.5905 -92.5398 61.5317 -99.7498C62.8849 -100.556 64.3048 -100.482 65.723 -100.336ZM-29.0788 -71.5642C-29.8602 -70.5403 -31.28 -70.8333 -32.2726 -71.2744C-36.4248 -73.0342 -40.5755 -72.567 -44.7813 -72.471C-46.1972 -72.4252 -47.6145 -72.4703 -49.0246 -72.6061C-50.8603 -72.5947 -52.2736 -73.7684 -53.5553 -75.0903C-54.8322 -76.5554 -54.5495 -78.4665 -53.414 -79.7868C-51.2859 -82.1358 -48.1636 -83.3096 -46.3328 -85.9028C-45.0055 -86.86 -43.4265 -87.6935 -41.9108 -87.9393C-40.3952 -88.1851 -38.9461 -87.8579 -37.6757 -86.0949C-33.9718 -83.8972 -31.2751 -80.2344 -29.4963 -76.3275C-28.3055 -73.3565 -28.2243 -72.6321 -29.0788 -71.5642ZM-18.357 -52.9263C-19.4942 -53.807 -20.4851 -54.9807 -20.9107 -56.3026C-23.0405 -61.4386 -22.0479 -67.3105 -25.3099 -72.007C-25.7355 -72.5947 -26.4471 -73.0342 -26.7297 -73.6219C-29.7107 -78.613 -32.2645 -83.6026 -36.7871 -86.8617C-37.6481 -87.801 -39.1085 -88.9682 -40.0849 -90.1386C-41.0612 -91.3091 -41.5599 -92.4828 -40.4959 -93.44C-35.3868 -98.2814 -26.3041 -99.4551 -21.9634 -93.0803C-21.3575 -92.1035 -21.3136 -90.6954 -21.4241 -89.3084C-21.5627 -87.9107 -21.8447 -86.5311 -22.2656 -85.1914C-21.195 -79.7868 -19.7752 -74.3561 -19.231 -68.787C-19.0393 -67.2828 -18.8622 -65.943 -18.6478 -64.8051C-18.4983 -60.9991 -16.6529 -57.6228 -16.2273 -53.9535C-16.0941 -52.7798 -17.5139 -52.3386 -18.357 -52.9263ZM76.4382 -21.8137C71.4705 -23.2789 65.9358 -23.2789 61.3952 -20.0524C56.4275 -16.2365 58.4143 -10.3647 58.9828 -5.07561C59.2655 -2.87305 56.7085 -1.40468 54.8257 -2.87956C53.3734 -3.69351 51.8805 -5.087 50.883 -5.97258C49.4533 -7.69141 48.3742 -9.6748 47.7071 -11.8103C47.5127 -13.2332 47.4882 -14.6743 47.634 -16.103C47.98 -19.6209 49.2341 -22.9956 51.0455 -26.0512C51.9587 -27.5787 53.0006 -29.0252 54.1597 -30.3749C55.3015 -31.7102 56.5447 -32.9549 57.8782 -34.0979C58.5377 -34.0035 58.9698 -33.3296 59.2005 -32.0077C59.1161 -31.0472 59.8243 -30.1665 60.6756 -29.7286C66.0771 -27.6742 73.3159 -27.3861 76.4382 -21.8137ZM18.8184 -16.2317C12.9994 -15.644 8.0316 -19.0203 2.78117 -20.9282C1.22002 -21.5158 -0.482475 -21.5158 -2.08424 -21.4524C-3.90857 -22.6586 -5.13995 -24.3614 -5.97333 -26.2775C-6.80671 -28.1935 -7.24045 -30.3196 -7.47113 -32.3723C-7.61084 -33.6975 -7.49387 -34.7865 -7.17872 -35.371C-6.54516 -36.5431 -6.19102 -36.8507 -4.65585 -37.1617C-3.12069 -37.4726 -0.294029 -37.567 1.4442 -35.2489C2.14057 -34.0865 2.87106 -32.9693 3.63567 -31.897C4.40027 -30.8248 5.19953 -29.7899 6.03345 -28.7926C9.73572 -24.1661 14.1349 -20.6433 18.8184 -16.8258C18.889 -16.743 18.9277 -16.6377 18.9277 -16.5287C18.9277 -16.4198 18.889 -16.3145 18.8184 -16.2317ZM-54.6957 25.306C-55.69 25.306 -56.2569 23.9858 -56.7069 22.97C-57.1244 22.0404 -57.0903 21.049 -56.1887 16.8279C-55.6092 15.1359 -54.7157 13.5689 -53.5553 12.2095C-51.4581 9.80672 -48.6477 8.49951 -45.4799 8.11858C-46.0436 8.01892 -46.6148 7.96773 -47.1872 7.96556C-48.8102 8.03407 -50.3725 8.60255 -51.6612 9.59346C-52.9218 10.5458 -53.9631 11.8465 -54.8241 13.3279C-56.5412 16.3542 -57.5338 19.7304 -58.2437 23.2581C-58.9536 21.3518 -59.0949 19.4439 -59.1973 17.6011C-59.2606 15.773 -59.1388 13.9367 -59.1729 12.0891C-58.7587 10.1844 -58.4013 9.59509 -56.4583 7.81741C-54.6454 6.87161 -52.683 6.47765 -50.7011 6.44672C-48.7189 6.44118 -46.7458 6.71518 -44.8398 7.26067C-43.9821 7.48207 -43.0805 7.8044 -42.2698 8.03719C-41.607 8.07625 -40.9356 8.15005 -40.2554 8.25858H-40.2473L-40.0751 8.28462C-39.7908 8.28462 -39.5082 7.84346 -39.0338 7.66277C-37.7699 6.23021 -35.0554 5.4716 -34.4641 5.93881C-33.6307 6.42719 -34.4641 7.87927 -35.3413 9.5658C-36.1016 11.2197 -37.9405 12.2469 -39.2239 13.2742C-43.6231 16.5039 -42.4875 21.9346 -42.3462 27.0723C-46.323 25.8937 -50.2966 24.72 -54.6957 25.306ZM-36.8147 36.6102C-38.9428 38.6646 -40.647 34.4077 -40.9296 32.2051C-41.4982 27.6567 -41.3552 23.1051 -41.2139 18.5551C-41.2139 16.5007 -39.937 14.7393 -38.8437 13.056C-36.5873 12.3804 -35.3705 10.7509 -34.7402 9.50394C-34.1456 8.37904 -33.8484 7.15486 -32.2888 5.96323C-30.7421 4.76399 -29.2728 3.46774 -27.8896 2.0823C-26.9832 2.9744 -28.4452 5.08578 -30.6757 7.2395C-30.7455 9.24345 -31.4879 11.3825 -32.2758 13.0381C-32.5569 13.7121 -32.5569 14.4463 -32.1313 14.7393C-26.5965 18.9962 -23.3313 24.72 -20.2089 30.4453C-26.8792 25.1595 -31.8405 31.9072 -36.8147 36.6102ZM-19.4763 27.7837C-20.373 27.6209 -21.7506 26.1297 -24.0867 22.9C-26.1709 20.1732 -27.7321 16.797 -30.9957 14.7425C-31.9899 14.0083 -31.4213 12.5416 -30.843 11.4656C-29.9252 9.43393 -29.8927 7.31766 -28.0716 4.96695C-27.1635 3.73463 -26.3122 2.55927 -25.7437 1.23904C-23.8998 -3.01794 -23.7585 -10.7961 -19.5007 -10.7961C-14.8172 -10.6496 -15.5255 -3.45747 -18.0386 0.355087C-18.8395 1.8023 -19.642 3.13719 -20.2674 4.31905C-20.8929 5.50092 -21.3396 6.52811 -21.4306 7.36324C-22.2038 11.0732 -19.7898 14.0083 -18.5065 17.2365C-17.868 18.853 -17.3693 20.6144 -17.267 22.397C-17.3709 24.1323 -17.0866 28.0963 -19.4763 27.7837ZM3.49108 17.6744C4.07233 18.2886 4.39633 19.1029 4.39633 19.9494C4.39633 20.7959 4.07233 21.6102 3.49108 22.2244C-0.341141 26.3349 -3.3205 31.619 -8.85522 33.3788C-10.1321 33.82 -11.4788 33.7467 -12.7541 33.3365C-14.027 32.9122 -15.1916 32.2131 -16.1655 31.2886C-16.8966 30.5918 -16.8771 30.0465 -16.4628 27.4321C-16.1379 25.2621 -16.4742 23.1555 -16.8917 21.0572C-17.3092 18.9588 -17.8047 16.8686 -17.8047 14.7393L-16.1022 15.1788C-14.8918 15.4016 -13.6601 15.4857 -12.4308 15.4295C-14.5138 14.7098 -16.4037 13.5195 -17.9541 11.9507C-19.231 10.4855 -18.9467 7.98671 -18.1474 5.92741C-17.5702 4.75533 -17.0119 3.58432 -16.4726 2.4144C-16.1098 1.62324 -15.7567 0.829903 -15.4134 0.0344009C-16.5635 1.96672 -17.6503 3.65811 -18.2205 4.98975C-18.742 6.35231 -19.2781 7.69858 -19.7979 9.0237C-19.9409 9.31834 -19.6566 9.91254 -19.7979 10.2088C-20.5079 10.9446 -20.7905 9.60811 -20.7905 9.46161C-21.1154 8.32207 -21.0456 6.98067 -20.81 5.5416C-18.3732 0.657883 -13.4104 -5.07235 -16.5229 -10.4705C-18.1231 -12.3312 -18.6056 -13.2086 -18.7599 -14.9098C-19.7833 -20.6351 -25.18 -23.2789 -29.8602 -25.7712C-31.1371 -26.3589 -30.1315 -28.384 -29.4264 -28.9244C-28.2227 -29.7075 -26.5998 -30.1014 -24.6601 -30.1796C-22.7204 -30.2577 -20.4932 -30.1014 -18.9321 -29.2956C-12.8369 -26.1424 -10.6471 -19.2856 -11.1685 -12.4451C-10.8869 -13.6335 -10.6368 -14.8468 -10.418 -16.0851C-10.275 -16.9658 -9.84942 -18.1396 -8.85684 -18.1396C-7.01139 -18.1396 -5.16595 -16.2317 -4.88166 -15.0563C-4.74033 -11.8282 -7.15598 -9.47909 -8.08032 -6.67095C-8.69114 -5.13747 -9.24023 -3.66584 -9.54239 -2.42212C-9.91321 -0.923233 -9.7907 0.655617 -9.19312 2.07905C-8.65416 3.44986 -7.95159 4.75024 -7.10075 5.95184C-5.9717 7.64975 -4.45441 9.1637 -3.10444 10.0558C-2.18983 10.9235 -0.342766 11.9507 -0.48735 12.0972C-1.15572 13.1773 -2.05447 14.0957 -3.11906 14.7865C-0.672546 14.9102 1.59528 15.6053 3.49108 17.6744ZM26.2684 -12.061C25.9143 -9.6191 24.9217 -6.25095 23.0746 -6.10445C20.8505 -5.85439 18.6049 -5.86476 16.3832 -6.13538C17.3579 -5.31165 17.829 -4.19328 17.2572 -2.58002C13.5095 -3.06839 9.84455 -4.17211 6.11792 -4.96002C8.70577 -4.29584 11.2449 -3.36304 13.5679 -2.58002C11.5795 -1.84747 9.59438 -0.525604 8.74152 1.3823C7.92016 3.13373 6.92472 4.79771 5.77028 6.34904C4.60473 7.93747 3.17614 9.314 1.54655 10.4188C0.6157 11.4281 -0.0487289 11.3256 -2.66582 9.38184C-4.28221 8.12834 -5.93435 6.70718 -7.17548 5.12811C-8.4166 3.54904 -9.27597 1.79091 -9.2711 -0.30584C-9.13789 -1.41282 -8.45884 -2.5849 -7.43539 -3.45421C-5.25692 -5.09676 -2.8364 -5.75282 -0.331398 -5.81956C-1.29494 -5.85318 -2.25964 -5.826 -3.21978 -5.73817C-4.78256 -5.59817 -5.2618 -5.6356 -4.95963 -5.99212C-6.13903 -5.34096 -7.29893 -4.65072 -8.4296 -3.90188C-8.00397 -6.69048 -6.86844 -9.33259 -5.44862 -11.6328C-4.59575 -12.5135 -4.149 -12.8065 -2.7633 -13.2135C-0.488976 -13.5896 2.35555 -14.9098 3.9167 -13.2965C4.10027 -13.1077 4.12464 -12.5689 4.00605 -11.9682C4.37807 -12.8261 5.79302 -13.9917 7.03902 -13.8826C13.425 -13.4431 20.2366 -11.094 26.3317 -14.4849C26.465 -14.3254 26.4991 -13.9819 26.2684 -12.061ZM45.2151 -48.3763C46.3523 -48.3763 47.6291 -48.6693 48.763 -48.6693C51.6011 -48.5228 54.582 -47.2042 56.0019 -44.414C54.8647 -45.1465 53.5895 -45.2931 52.4539 -44.707C45.0738 -41.0377 37.4093 -38.9817 29.1779 -37.5149C27.4754 -37.2219 26.0556 -39.2763 24.8307 -40.5965C23.8722 -41.824 23.2224 -43.2337 23.0827 -44.3489C26.7671 -52.0456 38.2622 -48.3763 45.2151 -48.3763ZM51.5686 -64.9533C49.7572 -61.5851 46.3506 -58.3554 42.2357 -59.3826C39.5793 -60.0898 37.0803 -61.2939 34.8702 -62.9314C37.6546 -60.8249 40.6876 -59.0814 43.9382 -57.9142C39.9647 -54.8326 34.4283 -57.4747 29.7432 -56.4165C26.7817 -56.3221 25.9435 -56.467 27.399 -58.6223C27.3212 -59.8983 27.0955 -61.1608 26.7265 -62.3844C26.9783 -60.6963 26.564 -59.1628 24.9217 -57.9142C20.568 -54.5379 17.0265 -50.8605 14.5573 -46.501C16.0551 -48.9428 18.0435 -51.1682 19.9539 -52.9247C21.6564 -47.3475 22.082 -40.4484 27.4884 -37.1958C29.4914 -35.9163 29.9106 -35.6054 30.1753 -35.047C30.5977 -34.137 30.4564 -32.8151 29.6051 -32.3756C28.288 -31.7912 26.9233 -31.3212 25.526 -30.9707C24.0922 -30.6032 22.6197 -30.4091 21.1398 -30.3928C20.3547 -30.3899 19.5712 -30.464 18.8005 -30.6142C20.7402 -30.1258 22.6522 -30.1958 24.561 -30.3944C26.6567 -30.6142 28.749 -30.9805 30.8788 -30.9072C32.4399 -30.9072 33.5755 -29.587 34.1424 -28.1186C34.8523 -26.3572 34.4299 -24.2882 33.1791 -22.7596C31.4457 -20.6335 29.7432 -18.5775 27.9335 -16.7282C26.6615 -15.4063 26.2651 -15.1963 25.6933 -15.2061C19.9507 -17.2572 14.5573 -20.487 10.1727 -24.9442C9.20051 -25.9562 8.3112 -27.045 7.51338 -28.2C6.72224 -29.3317 6.03962 -30.5357 5.47462 -31.7961C7.17711 -32.6768 9.16551 -33.5575 10.725 -33.1179C11.9678 -32.7517 13.2089 -32.304 14.4517 -31.8954C15.506 -31.5405 16.5635 -31.2035 17.6341 -30.9284C17.4359 -30.9935 17.2393 -31.0651 17.0477 -31.1449C15.7606 -31.6723 14.6511 -32.5581 13.8506 -33.6975C11.8151 -36.5056 11.7387 -39.6182 12.7134 -42.6265C12.1821 -41.2495 11.7537 -39.8347 11.4317 -38.394C11.4668 -40.6013 11.653 -42.8036 11.9889 -44.9854C11.3406 -42.4823 10.87 -39.9364 10.5805 -37.3668C10.503 -36.6615 10.2384 -35.99 9.81412 -35.422C9.38985 -34.854 8.82146 -34.4103 8.16807 -34.137C5.6127 -33.1098 2.77467 -34.137 1.31911 -36.4372C-0.320023 -38.2784 -3.22953 -38.2279 -4.87029 -38.2279C-6.51105 -38.2279 -6.89931 -38.2654 -7.2502 -38.3907C-7.64241 -38.5641 -7.97675 -38.8466 -8.21354 -39.2047C-8.36462 -39.4863 -8.30288 -39.7956 -8.49133 -41.4837C-6.82783 -41.9721 -5.3885 -42.2765 -3.99305 -42.7096C-2.59957 -43.1422 -1.24878 -43.7024 0.042244 -44.383C4.75333 -44.6224 6.72874 -48.7279 8.56769 -52.7212C9.18013 -54.0512 9.77958 -55.3698 10.4586 -56.5305C11.1036 -57.5339 11.6421 -58.6022 12.0653 -59.7179C11.5809 -58.5947 10.9717 -57.5298 10.2491 -56.5435C9.44221 -55.321 8.46708 -54.2189 7.35255 -53.2698C6.27551 -52.7472 4.90279 -52.8107 2.95662 -52.5242C1.01045 -52.2377 -1.03968 -52.2165 -3.00859 -52.2442C-4.12301 -52.2035 -5.94572 -51.4791 -6.73685 -51.3391C-6.89931 -51.3717 -7.20634 -51.357 -7.04713 -51.4303C-5.17895 -52.6854 -3.58855 -54.0251 -2.28406 -54.9058C0.877243 -56.7942 2.87052 -59.8286 3.74613 -63.3254C3.42123 -62.7361 2.93388 -62.4089 2.20773 -62.6091C1.07294 -62.9174 -0.0410385 -63.298 -1.12741 -63.7486C-2.2272 -64.1898 -3.327 -64.6668 -4.46253 -65.1079C-5.07588 -65.1001 -5.68425 -65.2192 -6.2495 -65.4579C-5.61124 -65.0119 -4.91269 -64.6594 -4.175 -64.4112C-2.68849 -63.475 -1.12038 -62.6756 0.510101 -62.023C1.22002 -61.73 1.92993 -60.5579 1.36298 -59.5291C0.68718 -58.134 -0.423996 -56.9049 -1.74147 -55.9249C-3.08657 -54.8603 -4.68347 -53.5579 -6.38109 -52.3712C-8.57256 -50.8703 -11.9792 -48.964 -13.823 -51.4596C-14.8172 -52.6333 -14.5329 -54.2465 -14.2486 -55.5684C-13.256 -63.7877 -14.1073 -71.714 -15.0609 -79.8372C-15.1811 -81.107 -15.043 -81.4391 -14.887 -81.4651C-13.6898 -80.223 -13.0708 -78.4275 -12.4633 -76.7572C-11.3878 -73.8417 -10.4375 -70.5093 -8.68627 -67.9665C-9.63986 -69.8468 -10.072 -72.2789 -10.6406 -74.0875C-11.2644 -76.6921 -8.99818 -77.5842 -7.63683 -78.4828C-6.66212 -79.0412 -6.42982 -78.9354 -5.68742 -77.5793C-4.3082 -75.3882 -1.46368 -75.6828 0.375267 -74.6491C2.64959 -73.3272 3.64055 -70.3921 4.06617 -67.75C4.16008 -67.3319 4.21877 -66.9066 4.24161 -66.4786C4.4002 -69.3613 3.95303 -72.2452 2.92901 -74.9437C2.64471 -75.5298 5.90998 -75.5298 7.18685 -74.5026C8.85146 -73.3078 10.2117 -71.7367 11.1572 -69.9168C11.5373 -69.1907 11.8542 -68.4331 12.1043 -67.6523C12.0783 -67.7696 12.0539 -67.8851 12.0263 -68.0024C11.5519 -70.0584 10.8599 -72.0819 10.1678 -74.063C11.431 -74.318 12.7436 -74.1033 13.8604 -73.4591C14.9098 -72.8551 15.7854 -71.9044 16.5051 -70.7747C17.9671 -68.4842 19.6761 -65.4026 18.8249 -63.3482C18.0224 -61.5265 17.2247 -59.6984 16.4596 -57.8589C17.13 -59.0006 17.8723 -60.0984 18.6819 -61.1456C20.81 -63.9342 18.8232 -67.1689 17.8908 -69.9558C17.4765 -71.517 17.0964 -73.013 16.6058 -75.0756C16.2679 -77.5842 15.4183 -79.9333 15.2753 -82.4289C15.2912 -82.811 15.442 -83.1751 15.7009 -83.4561C16.2679 -83.8972 17.1191 -83.6026 17.2621 -83.163C17.8827 -81.8803 18.4642 -80.604 19.0263 -79.3342C18.9597 -79.51 18.8898 -79.6858 18.82 -79.8633C18.2189 -81.4293 17.652 -83.0182 17.1191 -84.6298C16.765 -85.6586 15.7464 -86.2268 14.5004 -86.4579C13.1277 -86.5979 11.4545 -86.3733 10.0801 -86.0103C10.9021 -86.6722 11.8004 -87.233 12.7557 -87.6805C9.44168 -86.5784 6.0367 -85.8735 2.52126 -85.2126C4.92715 -85.4226 7.45164 -85.2842 9.73572 -85.7677C11.2855 -86.1112 13.9984 -86.5393 14.1414 -85.6586C14.71 -81.4017 16.1282 -77.4377 16.2695 -73.0342C14.1414 -74.9437 11.0191 -74.6507 8.51896 -75.3133C6.8975 -75.5795 5.25898 -75.728 3.61617 -75.7577C1.96404 -75.8 0.303787 -75.7577 -1.32722 -75.6812C-3.03134 -75.6812 -4.87516 -76.4137 -5.26017 -78.3119C-5.56883 -80.0847 -5.33652 -80.7326 -4.23023 -82.3051C-3.26274 -83.4007 -2.01181 -84.2069 -0.615685 -84.6347C-2.31818 -84.3417 -3.87933 -83.7556 -5.1562 -82.4337C-4.87191 -85.0758 -3.31075 -87.7179 -0.615685 -88.1575C0.662804 -88.4147 1.92181 -88.6084 3.16943 -88.7793C4.41706 -88.9503 5.64681 -89.1049 6.87007 -89.2775C11.1637 -89.0382 15.8488 -93.4433 19.5413 -90.2135C20.0572 -89.2008 20.4771 -88.1419 20.7954 -87.0505C20.7239 -87.9247 20.6492 -88.7907 20.5355 -89.6258C18.69 -94.4705 12.5867 -90.2135 9.16388 -89.8228C8.01055 -89.5161 6.83914 -89.2823 5.65656 -89.1228C4.47177 -88.9657 3.27351 -88.9373 2.08263 -89.0382C3.46799 -89.2748 4.8341 -89.6132 6.16991 -90.0507C7.51662 -90.4837 8.85198 -90.9705 10.1922 -91.4296C10.5496 -91.5924 10.9119 -91.747 11.2757 -91.8805C9.76658 -91.5126 8.26228 -91.1219 6.75474 -90.7507C5.40476 -90.3763 4.04829 -89.997 2.67883 -89.6307C1.30936 -89.2644 -0.0698471 -88.9161 -1.4653 -88.5986C-4.59899 -87.8596 -5.73453 -84.4882 -6.3356 -81.5384C-6.66237 -80.6699 -7.17015 -79.8812 -7.82508 -79.2249C-8.48002 -78.5686 -9.26705 -78.0598 -10.1337 -77.7324C-11.2709 -77.2912 -12.5331 -77.5842 -12.8288 -79.0526C-12.9003 -80.7407 -12.6436 -82.3654 -12.5039 -84.0307C-12.179 -88.7337 -9.4173 -91.3058 -5.84337 -92.6098C-4.61475 -93.0505 -3.34422 -93.3636 -2.05176 -93.5442C4.52385 -92.994 11.1419 -93.8143 17.3856 -95.9535C18.9483 -96.481 20.5008 -97.0898 22.043 -97.78C23.9193 -98.2814 25.1962 -99.8963 27.0417 -100.189C27.1314 -100.21 27.2246 -100.213 27.3152 -100.196C27.4059 -100.179 27.4921 -100.143 27.5684 -100.092C27.6447 -100.04 27.7094 -99.9727 27.7586 -99.8945C27.8077 -99.8163 27.8402 -99.7288 27.8539 -99.6375C27.8247 -99.823 27.7906 -100.007 27.7516 -100.189C26.6144 -106.061 27.0417 -112.073 30.8739 -116.481C33.4276 -119.27 36.9756 -121.326 40.7347 -121.772C41.3351 -121.566 41.8591 -121.182 42.2374 -120.672C44.0877 -117.362 48.3439 -113.546 46.2142 -109.73C40.9572 -100.043 34.0043 -91.9765 29.7465 -81.9893C24.5903 -86.3391 28.6451 -93.6435 27.8929 -99.4079C27.9022 -98.8806 27.7301 -98.3661 27.4056 -97.951C26.8873 -97.0003 26.3691 -96.3751 24.2036 -94.1791C24.0623 -94.0277 23.778 -93.5865 23.6367 -93.5865C22.1991 -93.6167 20.7611 -93.553 19.3317 -93.3961C17.8697 -93.2333 16.4238 -92.9989 14.9845 -92.7107C15.4443 -92.7612 15.9105 -92.797 16.3751 -92.8214C18.5 -92.9289 20.6606 -92.7856 22.7806 -92.7221C23.9681 -93.0347 25.0711 -93.8112 26.2213 -94.6512C26.4243 -92.8605 26.3106 -91.0926 26.2684 -89.3507C26.2262 -87.6089 26.2505 -85.8882 26.7233 -84.2082C27.2463 -81.9796 27.3454 -81.4847 27.2805 -80.6561C27.0547 -79.6403 27.4803 -78.4665 26.4877 -77.7258C25.7112 -77.1903 24.7007 -77.0242 23.9892 -77.5533C24.722 -76.3695 25.6671 -75.3318 26.7769 -74.4928C26.9444 -74.373 27.0776 -74.2114 27.1635 -74.024C27.0245 -74.8453 26.9804 -75.68 27.0319 -76.5114C27.1386 -77.8498 27.4807 -79.1587 28.0424 -80.3777C28.468 -81.1103 29.4622 -80.8172 29.6051 -80.3777C30.4023 -78.5297 31.5125 -76.8339 32.8867 -75.3654C36.9837 -71.1328 42.944 -68.6356 48.9044 -68.9286C49.33 -68.9286 49.7572 -68.6356 50.1016 -68.31C52.8292 -66.9491 52.8649 -66.337 51.5686 -64.9533Z" fill="white"/>
<path d="M7.69531 14.3015C10.0005 14.6694 12.3869 14.5685 14.7035 14.7899C12.4227 14.085 9.87216 13.7057 7.69531 14.3015Z" fill="white"/>
</g>
<path d="M53.0046 26.7921V25.9928H50.5581V22.7793H50.9821V25.6233H52.6342V22.7793H53.0566V25.6233H53.4091V26.7921H53.0046Z" fill="black"/>
<path d="M57.3209 22.7793V23.1488H55.5226V24.1549H57.204V24.513H55.5226V25.6233H57.3453V25.9928H55.1002V22.7793H57.3209Z" fill="black"/>
<path d="M61.6552 22.7793V25.9928H61.2312V24.4902H59.5368V25.9928H59.1144V22.7793H59.5368V24.1191H61.2312V22.7793H61.6552Z" fill="black"/>
<path d="M65.8529 22.7793V23.1488H64.7759V25.9928H64.3535V23.1488H63.2764V22.7793H65.8529Z" fill="black"/>
<path d="M67.4937 22.7793H68.8128C69.0903 22.7637 69.365 22.8422 69.5925 23.0023C69.6926 23.088 69.7709 23.1963 69.8209 23.3183C69.8709 23.4403 69.8912 23.5725 69.8801 23.7039C69.8801 24.3551 69.5156 24.6807 68.7868 24.6807H67.916V25.9993H67.4937V22.7793ZM67.916 23.1439V24.3177H68.7283C68.9152 24.3286 69.1012 24.2838 69.2628 24.1891C69.3308 24.1354 69.3842 24.0652 69.4177 23.9852C69.4512 23.9052 69.4639 23.8179 69.4544 23.7316C69.4579 23.6257 69.4368 23.5203 69.3927 23.424C69.3555 23.3456 69.2931 23.282 69.2156 23.2433C69.139 23.2046 69.0568 23.1782 68.972 23.1651C68.872 23.1496 68.7709 23.1425 68.6698 23.1439H67.916Z" fill="black"/>
<path d="M74.1688 22.7794H75.5399C75.798 22.7687 76.0533 22.8362 76.2726 22.9731C76.3698 23.0404 76.4478 23.132 76.4988 23.2388C76.5498 23.3456 76.5721 23.4639 76.5634 23.582C76.566 23.7341 76.5212 23.8832 76.435 24.0085C76.3517 24.1318 76.2309 24.2248 76.0906 24.2738C76.2716 24.3078 76.4339 24.4068 76.5471 24.5522C76.6592 24.7071 76.7163 24.895 76.7096 25.0862C76.7096 25.6896 76.304 25.9918 75.4928 25.9929H74.1721L74.1688 22.7794ZM74.5847 23.1392V24.155H75.345C75.4327 24.155 75.5074 24.155 75.5675 24.155C75.6383 24.1503 75.7085 24.1388 75.7771 24.1208C75.8445 24.1075 75.9085 24.081 75.9655 24.0427C76.0165 24.002 76.0576 23.9502 76.0858 23.8913C76.1226 23.8171 76.1405 23.7348 76.1377 23.652C76.14 23.5705 76.125 23.4896 76.0939 23.4143C76.0687 23.3576 76.0316 23.3071 75.985 23.2662C75.9334 23.2275 75.8741 23.2003 75.8112 23.1864C75.7463 23.1696 75.6799 23.1587 75.613 23.1538C75.5545 23.1538 75.4782 23.1457 75.3856 23.1457L74.5847 23.1392ZM74.5847 24.4904V25.6299H75.4311C75.5367 25.6299 75.6211 25.6299 75.6877 25.6299C75.7629 25.6234 75.8374 25.6104 75.9103 25.5908C75.9834 25.5791 76.0521 25.548 76.1092 25.5008C76.1663 25.4536 76.2098 25.3919 76.2352 25.3222C76.2948 25.1578 76.2999 24.9786 76.2498 24.811C76.2302 24.7464 76.191 24.6896 76.1377 24.6483C76.0909 24.6131 76.0415 24.5815 75.9899 24.5538C75.9264 24.5252 75.8581 24.5086 75.7885 24.505C75.7024 24.4952 75.626 24.4903 75.5854 24.4887H74.5912L74.5847 24.4904Z" fill="black"/>
<path d="M78.5355 22.7793H79.8546C80.1321 22.7637 80.4068 22.8422 80.6343 23.0023C80.7345 23.088 80.8127 23.1963 80.8627 23.3183C80.9128 23.4403 80.933 23.5725 80.9219 23.7039C80.9219 24.3551 80.5575 24.6807 79.8286 24.6807H78.9514V25.9993H78.529L78.5355 22.7793ZM78.9579 23.1439V24.3177H79.7701C79.957 24.3286 80.143 24.2838 80.3046 24.1891C80.3727 24.1354 80.426 24.0652 80.4595 23.9852C80.4931 23.9052 80.5057 23.8179 80.4963 23.7316C80.4997 23.6257 80.4786 23.5203 80.4345 23.424C80.3973 23.3456 80.3349 23.282 80.2575 23.2433C80.1808 23.2046 80.0986 23.1782 80.0138 23.1651C79.9138 23.1496 79.8128 23.1425 79.7116 23.1439H78.9579Z" fill="black"/>
<path d="M84.0443 22.7793L85.2968 25.9928H84.824L84.4682 25.016H83.1215L82.756 25.9928H82.306L83.5667 22.7793H84.0443ZM84.3415 24.6709L83.7973 23.1846L83.2434 24.6709H84.3415Z" fill="black"/>
<path d="M89.1761 25.9929H88.7521V24.562C88.4599 24.6327 88.1608 24.6704 87.8602 24.6743C87.6951 24.6767 87.5307 24.6531 87.3729 24.6043C87.2548 24.5725 87.1443 24.5172 87.048 24.4416C86.9711 24.3738 86.9077 24.292 86.8612 24.2006C86.8177 24.1204 86.786 24.0343 86.7669 23.945C86.751 23.8657 86.7434 23.785 86.7442 23.7041V22.7876H87.1666V23.6667C87.1669 23.7211 87.1707 23.7755 87.178 23.8295C87.189 23.8855 87.2064 23.9402 87.2299 23.9922C87.255 24.0545 87.2939 24.1101 87.3437 24.155C87.4046 24.2038 87.4748 24.2398 87.55 24.2609C87.6556 24.2911 87.7651 24.3054 87.8749 24.3032C88.1752 24.2996 88.4742 24.2636 88.7667 24.1957V22.7827H89.1907L89.1761 25.9929Z" fill="black"/>
<path d="M93.3657 22.7793V23.1488H91.5674V24.1549H93.2471V24.513H91.5657V25.6233H93.3868V25.9928H91.1434V22.7793H93.3657Z" fill="black"/>
<path d="M95.5815 24.0784H96.6537C96.7861 24.0697 96.9188 24.0877 97.0441 24.1314C97.1694 24.175 97.2846 24.2433 97.3831 24.3323C97.4725 24.4262 97.5416 24.5375 97.586 24.6594C97.6304 24.7812 97.6493 24.911 97.6414 25.0405C97.649 25.1691 97.6298 25.2979 97.585 25.4186C97.5403 25.5394 97.471 25.6496 97.3815 25.7421C97.2826 25.8299 97.1675 25.8972 97.0426 25.9402C96.9177 25.9832 96.7855 26.0011 96.6537 25.9928H95.1575V22.7793H97.3571V23.1488H95.5815V24.0784ZM97.2174 25.0405C97.2174 24.6465 96.9829 24.4495 96.514 24.4495H95.5815V25.6233H96.514C96.9835 25.6233 97.2174 25.4279 97.2174 25.0405Z" fill="black"/>
<path d="M102.047 22.7793V25.9928H101.623V24.4902H99.9287V25.9928H99.5063V22.7793H99.9287V24.1191H101.623V22.7793H102.047Z" fill="black"/>
<path d="M105.371 22.7012C105.582 22.6888 105.794 22.7236 105.991 22.803C106.187 22.8823 106.364 23.0043 106.508 23.1602C106.788 23.4945 106.933 23.9221 106.914 24.3584C106.931 24.8029 106.789 25.2388 106.513 25.5874C106.373 25.7507 106.198 25.8796 106.001 25.9643C105.804 26.049 105.59 26.0871 105.376 26.0758C105.145 26.0794 104.916 26.0333 104.705 25.9407C104.514 25.8583 104.346 25.7297 104.217 25.5663C104.09 25.4026 103.994 25.2173 103.933 25.0193C103.866 24.8048 103.834 24.5813 103.836 24.3567C103.813 23.9171 103.963 23.486 104.253 23.1553C104.396 23.0043 104.57 22.8857 104.763 22.8074C104.956 22.7291 105.163 22.6928 105.371 22.7012ZM105.371 23.0723C105.214 23.0638 105.057 23.0936 104.914 23.1591C104.77 23.2246 104.645 23.3238 104.549 23.4484C104.353 23.7188 104.252 24.047 104.263 24.3812C104.244 24.7287 104.352 25.0711 104.567 25.3449C104.666 25.4626 104.791 25.5561 104.931 25.6185C105.072 25.6808 105.225 25.7103 105.379 25.7046C105.533 25.7114 105.686 25.6823 105.827 25.6196C105.968 25.5569 106.093 25.4623 106.191 25.3432C106.404 25.0692 106.511 24.7278 106.493 24.3812C106.511 24.0372 106.403 23.6986 106.189 23.4288C106.089 23.3109 105.963 23.2175 105.821 23.1557C105.679 23.094 105.525 23.0654 105.371 23.0723Z" fill="black"/>
<path d="M108.704 25.9926V22.7791H109.128V25.501H109.138L110.709 22.7791H111.245V25.9926H110.823V23.261H110.813L109.237 25.9926H108.704ZM110.654 21.9342C110.633 22.1054 110.556 22.265 110.436 22.3884C110.374 22.4446 110.302 22.4879 110.223 22.5159C110.145 22.5438 110.061 22.5558 109.978 22.5512C109.807 22.5562 109.642 22.4936 109.517 22.377C109.391 22.259 109.312 22.0995 109.294 21.9277H109.523C109.544 22.0309 109.601 22.1233 109.683 22.1879C109.766 22.2524 109.87 22.2849 109.975 22.2794C110.079 22.2822 110.181 22.2487 110.263 22.1845C110.345 22.1204 110.402 22.0296 110.425 21.9277L110.654 21.9342Z" fill="black"/>
<path d="M118.336 22.7793L116.985 24.0702L118.391 25.9928H117.85L116.687 24.3649L116.156 24.8712V25.9993H115.732V22.7793H116.153V24.373L117.777 22.7793H118.336Z" fill="black"/>
<path d="M121.351 22.7012C121.563 22.6888 121.775 22.7235 121.971 22.8029C122.168 22.8822 122.344 23.0043 122.488 23.1603C122.769 23.4942 122.914 23.922 122.894 24.3584C122.912 24.8031 122.77 25.2392 122.493 25.5875C122.354 25.751 122.179 25.8802 121.982 25.9649C121.784 26.0496 121.57 26.0875 121.356 26.0758C121.125 26.0791 120.897 26.033 120.685 25.9407C120.494 25.8579 120.327 25.7293 120.198 25.5663C120.071 25.4027 119.975 25.2174 119.914 25.0193C119.847 24.8048 119.815 24.5813 119.818 24.3568C119.795 23.9173 119.944 23.4862 120.234 23.1554C120.377 23.0044 120.551 22.8857 120.743 22.8074C120.936 22.7291 121.143 22.6929 121.351 22.7012ZM121.351 23.0724C121.194 23.0636 121.037 23.0933 120.893 23.1588C120.75 23.2243 120.624 23.3236 120.528 23.4484C120.331 23.7189 120.231 24.0471 120.242 24.3812C120.224 24.7289 120.332 25.0713 120.547 25.3449C120.649 25.4592 120.775 25.5505 120.915 25.6131C121.055 25.6756 121.206 25.708 121.359 25.708C121.513 25.708 121.664 25.6756 121.804 25.6131C121.944 25.5505 122.069 25.4592 122.172 25.3449C122.382 25.0699 122.489 24.7291 122.472 24.3828C122.49 24.0389 122.382 23.7003 122.168 23.4305C122.068 23.3125 121.943 23.2189 121.801 23.1569C121.659 23.0948 121.506 23.0659 121.351 23.0724Z" fill="black"/>
<path d="M127.401 24.7785C127.386 25.1374 127.236 25.4772 126.98 25.7292C126.712 25.9663 126.362 26.0885 126.005 26.0694C125.802 26.0787 125.599 26.0429 125.412 25.9647C125.224 25.8865 125.055 25.7677 124.919 25.6169C124.658 25.2658 124.517 24.84 124.517 24.4025C124.517 23.965 124.658 23.5391 124.919 23.188C125.055 23.0265 125.226 22.8984 125.419 22.8138C125.612 22.7291 125.822 22.69 126.033 22.6997C126.353 22.6943 126.667 22.7906 126.93 22.9748C127.055 23.0609 127.159 23.1744 127.234 23.3066C127.308 23.4389 127.352 23.5865 127.362 23.7383H126.94C126.896 23.5407 126.78 23.3665 126.615 23.2499C126.44 23.1268 126.23 23.0644 126.017 23.0725C125.861 23.0624 125.704 23.0919 125.562 23.1581C125.42 23.2244 125.297 23.3254 125.205 23.4518C125.016 23.7258 124.92 24.0534 124.932 24.3862C124.911 24.7321 125.013 25.0741 125.221 25.3515C125.316 25.4679 125.436 25.5604 125.573 25.6217C125.71 25.683 125.859 25.7115 126.009 25.7048C126.127 25.7102 126.246 25.6919 126.357 25.6511C126.469 25.6103 126.571 25.5478 126.658 25.4671C126.834 25.2795 126.938 25.0355 126.951 24.7785H127.401Z" fill="black"/>
<path d="M129.202 22.7793H129.789L130.82 25.5012L131.815 22.7793H132.406V25.9928H132.005V23.3116L131.001 25.9928H130.63L129.609 23.3116V25.9928H129.202V22.7793Z" fill="black"/>
<path d="M136.604 22.7793V23.1488H134.807V24.1549H136.487V24.513H134.807V25.6233H136.622V25.9928H134.378V22.7793H136.604Z" fill="black"/>
<path d="M140.623 22.7793V23.1488H139.546V25.9928H139.123V23.1488H138.046V22.7793H140.623Z" fill="black"/>
<path d="M143.596 22.7012C143.807 22.6888 144.019 22.7236 144.216 22.803C144.412 22.8823 144.589 23.0043 144.733 23.1602C145.013 23.4945 145.158 23.9221 145.139 24.3584C145.156 24.8029 145.013 25.2388 144.738 25.5874C144.598 25.7507 144.423 25.8796 144.226 25.9643C144.029 26.049 143.815 26.0871 143.6 26.0758C143.37 26.0794 143.141 26.0333 142.93 25.9407C142.739 25.8583 142.571 25.7297 142.442 25.5663C142.315 25.4026 142.219 25.2173 142.158 25.0193C142.091 24.8048 142.058 24.5813 142.06 24.3567C142.038 23.9171 142.188 23.486 142.478 23.1553C142.621 23.0043 142.795 22.8857 142.988 22.8074C143.181 22.7291 143.388 22.6928 143.596 22.7012ZM143.596 23.0723C143.439 23.0638 143.282 23.0936 143.139 23.1591C142.995 23.2246 142.87 23.3238 142.774 23.4484C142.578 23.7188 142.477 24.047 142.488 24.3812C142.469 24.7287 142.577 25.0711 142.791 25.3449C142.891 25.4626 143.016 25.5561 143.156 25.6185C143.297 25.6808 143.45 25.7103 143.604 25.7046C143.758 25.7114 143.911 25.6823 144.052 25.6196C144.193 25.5569 144.318 25.4623 144.416 25.3432C144.628 25.0692 144.736 24.7278 144.718 24.3812C144.736 24.0372 144.628 23.6986 144.414 23.4288C144.314 23.3109 144.188 23.2175 144.046 23.1557C143.904 23.094 143.75 23.0654 143.596 23.0723Z" fill="black"/>
<path d="M149.293 22.7793V25.9928H148.87V23.1488H147.685L147.621 24.9591C147.625 25.2405 147.554 25.5179 147.417 25.7633C147.362 25.8569 147.283 25.934 147.189 25.9865C147.094 26.0389 146.987 26.0647 146.879 26.0612C146.773 26.0592 146.669 26.0377 146.572 25.9977V25.6363C146.643 25.6712 146.723 25.687 146.802 25.6819C146.877 25.6851 146.951 25.6633 147.012 25.62C147.084 25.5429 147.132 25.4469 147.152 25.3433C147.199 25.1448 147.222 24.9416 147.222 24.7377L147.28 22.7842L149.293 22.7793Z" fill="black"/>
<path d="M152.628 22.7012C152.839 22.6888 153.051 22.7236 153.248 22.803C153.444 22.8823 153.621 23.0043 153.765 23.1602C154.046 23.4941 154.191 23.922 154.171 24.3584C154.189 24.803 154.046 25.2392 153.77 25.5874C153.63 25.7507 153.455 25.8796 153.258 25.9643C153.061 26.049 152.847 26.0871 152.633 26.0758C152.402 26.079 152.173 26.0329 151.962 25.9407C151.771 25.8579 151.604 25.7293 151.474 25.5663C151.347 25.4026 151.251 25.2173 151.19 25.0193C151.124 24.8048 151.092 24.5812 151.094 24.3567C151.071 23.9173 151.22 23.4862 151.51 23.1553C151.653 23.0043 151.827 22.8857 152.02 22.8074C152.213 22.7291 152.42 22.6928 152.628 22.7012ZM152.628 23.0723C152.471 23.0638 152.314 23.0936 152.171 23.1591C152.027 23.2246 151.902 23.3238 151.806 23.4484C151.61 23.7188 151.509 24.047 151.52 24.3812C151.502 24.7286 151.61 25.0707 151.824 25.3449C151.923 25.4626 152.048 25.5561 152.188 25.6185C152.329 25.6808 152.482 25.7103 152.636 25.7046C152.79 25.7114 152.943 25.6823 153.084 25.6196C153.225 25.5569 153.35 25.4623 153.448 25.3432C153.66 25.0692 153.768 24.7278 153.75 24.3812C153.768 24.0372 153.66 23.6986 153.446 23.4288C153.346 23.3109 153.22 23.2175 153.078 23.1557C152.936 23.094 152.782 23.0654 152.628 23.0723Z" fill="black"/>
<path d="M156.385 25.9928H155.963V22.7793H158.075V23.1488H156.39L156.385 25.9928Z" fill="black"/>
<path d="M159.69 25.9928V22.7793H160.114V25.5012H160.122L161.694 22.7793H162.23V25.9928H161.802V23.2612L160.224 25.9928H159.69Z" fill="black"/>
<path d="M164.203 25.9928V22.7793H164.625V25.5012H164.635L166.207 22.7793H166.743V25.9928H166.319V23.2612H166.31L164.734 25.9928H164.203Z" fill="black"/>
<path d="M58.6449 7.44922V17.0229H58.4208L51.7927 10.1434V17.0229H50.576V7.44922H50.8245L57.4266 14.2767V7.44922H58.6449Z" fill="#1D1D1B"/>
<path d="M67.5538 8.46503H62.0467V11.7599H66.9203V12.8067H62.0467V15.9681H67.5538V17.0164H60.817V7.44922H67.5538V8.46503Z" fill="#1D1D1B"/>
<path d="M79.8352 7.44955H81.1543L77.7428 17.0233H77.5641L74.7667 10.1861L71.9498 17.0233H71.7646L68.4116 7.44955H69.7437L72.0001 14.054L74.6513 7.43652H74.8495L77.5202 14.054L79.8352 7.44955Z" fill="#1D1D1B"/>
<path d="M91.6579 15.0875C91.2651 15.7539 90.6984 16.3004 90.0188 16.6682C89.3415 17.007 88.5997 17.1968 87.8433 17.2249C87.0868 17.253 86.3331 17.1187 85.6326 16.831C85.0467 16.5848 84.5167 16.222 84.0747 15.7647C83.64 15.305 83.2971 14.7662 83.0643 14.1775C82.5748 12.9326 82.5748 11.5479 83.0643 10.303C83.2957 9.71404 83.6388 9.17558 84.0747 8.71746C84.5173 8.25887 85.0485 7.8955 85.6359 7.64956C86.2591 7.38548 86.9297 7.25198 87.6064 7.25723C88.4332 7.24663 89.249 7.44778 89.9765 7.84165C90.6728 8.21831 91.2594 8.76973 91.679 9.44188L90.5565 9.91398C90.0245 9.16515 89.2302 8.64495 88.3322 8.45725C87.4342 8.26955 86.4986 8.42816 85.7122 8.90142C85.1549 9.24042 84.7 9.72491 84.3964 10.303C84.0891 10.9018 83.9288 11.5654 83.9288 12.2386C83.9288 12.9119 84.0891 13.5755 84.3964 14.1742C84.7 14.7533 85.1548 15.2388 85.7122 15.5791C86.2508 15.9026 86.8631 16.0825 87.4907 16.1015C88.1183 16.1206 88.7404 15.9783 89.2975 15.6882C89.8039 15.4158 90.2396 15.0283 90.5695 14.5568L91.6579 15.0875Z" fill="#1D1D1B"/>
<path d="M94.6211 16.0136H99.969V17.0229H93.3978V7.44922H94.6276L94.6211 16.0136Z" fill="#1D1D1B"/>
<path d="M102.82 7.44922V17.0229H101.59V7.44922H102.82Z" fill="#1D1D1B"/>
<path d="M113.379 7.44922V17.0229H113.157L106.529 10.1434V17.0229H105.31V7.44922H105.559L112.163 14.2767V7.44922H113.379Z" fill="#1D1D1B"/>
<path d="M117.075 7.44922V17.0229H115.845V7.44922H117.075Z" fill="#1D1D1B"/>
<path d="M127.967 15.0875C127.576 15.7542 127.009 16.3008 126.33 16.6682C125.653 17.007 124.911 17.1968 124.154 17.2249C123.398 17.253 122.644 17.1187 121.944 16.831C121.357 16.5852 120.827 16.2224 120.384 15.7647C119.95 15.3053 119.607 14.7665 119.375 14.1775C118.885 12.9328 118.885 11.5477 119.375 10.3031C119.607 9.71437 119.951 9.17602 120.386 8.71747C120.829 8.25849 121.361 7.89508 121.949 7.64957C122.571 7.38536 123.241 7.25184 123.918 7.25725C124.744 7.2465 125.56 7.44766 126.288 7.84166C126.984 8.21832 127.571 8.76974 127.99 9.44189L126.868 9.91399C126.336 9.16528 125.542 8.64512 124.644 8.45742C123.746 8.26972 122.811 8.42827 122.025 8.90143C121.468 9.24084 121.012 9.72519 120.708 10.3031C120.4 10.9018 120.24 11.5654 120.24 12.2386C120.24 12.9119 120.4 13.5755 120.708 14.1742C121.012 14.753 121.467 15.2384 122.025 15.5791C122.564 15.9026 123.176 16.0825 123.803 16.1016C124.431 16.1207 125.053 15.9783 125.61 15.6882C126.117 15.4163 126.552 15.0287 126.881 14.5568L127.967 15.0875Z" fill="#1D1D1B"/>
</g>
<defs>
<clipPath id="clip0_306_82">
<rect width="167" height="35" fill="white"/>
</clipPath>
<clipPath id="clip1_306_82">
<rect width="35.5768" height="35" fill="white"/>
</clipPath>
</defs>
</svg>
