<svg width="12" height="11" viewBox="0 0 12 11" fill="none" xmlns="http://www.w3.org/2000/svg">
<path fill-rule="evenodd" clip-rule="evenodd" d="M2.97879 0L6.28845 6.59161L9.18332 0.0122683L9.68641 0.452458L9.35717 0.828752C9.68641 0.452458 9.68641 0.452458 9.68641 0.452458L9.68744 0.453361L9.68884 0.454591L9.69272 0.458031L9.70469 0.468813C9.71451 0.47773 9.72795 0.490103 9.74466 0.505889C9.77808 0.537451 9.82466 0.582705 9.88163 0.641292C9.99551 0.758386 10.1514 0.929242 10.3272 1.15102C10.678 1.59375 11.1121 2.24465 11.4465 3.08055C12.1221 4.76969 12.4347 7.17658 10.8573 10.0682L9.18332 10.0682C10.6062 7.45977 11.0923 4.88782 10.518 3.45195C10.175 2.5945 9.05512 2.71968 8.68205 3.56448L6.3573 8.82874C5.08812 6.07886 4.25091 4.38742 3.70733 3.35102C3.26565 2.50891 2.24824 2.51296 1.95843 3.41864C1.49789 4.85786 1.92624 7.44445 3.3573 10.0682L1.71801 10.0682C0.149211 7.19191 0.466577 4.79964 1.006 3.11387C1.27339 2.27825 1.64111 1.62594 1.94357 1.18063C2.09499 0.957705 2.23072 0.785668 2.33054 0.667393C2.38049 0.60822 2.42153 0.562392 2.45119 0.530268C2.46602 0.514203 2.478 0.501553 2.48684 0.492364L2.4977 0.481177L2.50129 0.477538L2.50261 0.476208C2.50261 0.476208 2.50361 0.475206 2.85717 0.828752L2.50361 0.475205L2.97879 0Z" fill="#FFAE43"/>
</svg>
