<svg width="18" height="17" viewBox="0 0 18 17" fill="none" xmlns="http://www.w3.org/2000/svg">
<path d="M12.6952 10.8637L12.6953 10.8637L12.6991 10.8522C12.9308 10.1424 14.0017 9.83994 14.6678 10.4677L17.1851 12.8401L17.528 12.4763L17.1851 12.8401C17.589 13.2208 17.6252 13.9133 17.172 14.4124L15.4769 16.0099L15.8199 16.3738L15.4769 16.0099C15.1477 16.3202 14.6514 16.4988 13.969 16.5C13.285 16.5012 12.4523 16.3224 11.5164 15.9604C9.64616 15.237 7.45215 13.8162 5.37463 11.8582C3.29802 9.9011 1.81654 7.83725 1.0635 6.08325C0.686588 5.20533 0.502489 4.42906 0.500025 3.79627C0.497591 3.1712 0.670449 2.71798 0.974478 2.4138L2.67759 0.808691C3.09948 0.411077 3.88454 0.37916 4.43201 0.820895L6.9363 3.18109C7.55201 3.76137 7.31003 4.73178 6.51066 4.96359L6.51063 4.96347L6.50008 4.96679C5.49879 5.2813 4.72333 6.3647 5.09186 7.45185C5.35616 8.46909 6.14917 9.53555 7.06224 10.3852C7.98465 11.2435 9.11622 11.9612 10.1313 12.2004L10.1313 12.2005L10.1435 12.2031C11.155 12.415 12.3282 11.9013 12.6952 10.8637Z" stroke="#6FC67B"/>
</svg>
