<svg width="20" height="19" viewBox="0 0 20 19" fill="none" xmlns="http://www.w3.org/2000/svg">
<path d="M19.5313 13.9713C19.4132 13.7724 19.0983 13.653 18.6259 13.4141C18.1535 13.1753 15.831 12.0214 15.3979 11.8621C14.965 11.703 14.65 11.6234 14.3351 12.1008C14.0202 12.5783 13.1149 13.653 12.8393 13.9713C12.5638 14.2896 12.2882 14.3296 11.816 14.0907C11.3436 13.852 9.82144 13.3483 8.01705 11.723C6.61271 10.458 5.66464 8.89593 5.38908 8.41833C5.11352 7.94074 5.35971 7.68266 5.59619 7.44478C5.80873 7.23097 6.06862 6.88747 6.3048 6.609C6.54098 6.33052 6.61971 6.1314 6.77718 5.81326C6.93463 5.49474 6.85592 5.21627 6.7378 4.97747C6.61971 4.73867 5.67497 2.39058 5.28133 1.43539C4.89784 0.505193 4.50841 0.631204 4.21847 0.616509C3.94323 0.602548 3.62796 0.599609 3.31308 0.599609C2.99817 0.599609 2.48636 0.719007 2.05337 1.1966C1.62037 1.67419 0.400024 2.82831 0.400024 5.17622C0.400024 7.52432 2.09271 9.7927 2.32893 10.111C2.56511 10.4295 5.65995 15.2478 10.3988 17.3142C11.5258 17.8057 12.4057 18.0992 13.0918 18.319C14.2234 18.6822 15.2533 18.6309 16.0672 18.5081C16.9748 18.3712 18.862 17.3541 19.2559 16.2399C19.6493 15.1254 19.6493 14.1702 19.5313 13.9713Z" fill="#6FC67B"/>
</svg>
