<svg width="17" height="17" viewBox="0 0 17 17" fill="none" xmlns="http://www.w3.org/2000/svg">
<path d="M6.90723 1.08922C8.05815 1.08817 9.18353 1.42849 10.141 2.06714C11.0985 2.7058 11.845 3.61408 12.2862 4.67709C12.7273 5.7401 12.8433 6.91007 12.6194 8.03901C12.3955 9.16794 11.8418 10.2051 11.0284 11.0193C10.2149 11.8335 9.17827 12.3881 8.04954 12.6131C6.92081 12.838 5.75073 12.7231 4.68732 12.2829C3.62391 11.8427 2.71494 11.097 2.07542 10.1401C1.43589 9.18321 1.09453 8.05815 1.09453 6.90723C1.10151 5.36726 1.71599 3.89228 2.80442 2.80286C3.89286 1.71343 5.36727 1.0976 6.90723 1.08922ZM6.90723 0C5.54111 0 4.20567 0.405102 3.06978 1.16408C1.93389 1.92305 1.04858 3.00182 0.525785 4.26395C0.00299289 5.52608 -0.133793 6.91489 0.132724 8.25476C0.39924 9.59463 1.05709 10.8254 2.02308 11.7914C2.98908 12.7574 4.21983 13.4152 5.5597 13.6817C6.89957 13.9483 8.28838 13.8115 9.55051 13.2887C10.8126 12.7659 11.8914 11.8806 12.6504 10.7447C13.4094 9.60879 13.8145 8.27335 13.8145 6.90723C13.8145 5.07532 13.0867 3.31844 11.7914 2.02308C10.496 0.727724 8.73914 0 6.90723 0Z" fill="#6FC67B"/>
<path d="M16.827 16.094L12.2544 11.251L11.4999 12.0002L16.0725 16.8432C16.1217 16.8927 16.1802 16.9321 16.2446 16.959C16.309 16.986 16.3781 17 16.4479 17.0002C16.5177 17.0005 16.5869 16.987 16.6515 16.9605C16.7161 16.934 16.7748 16.895 16.8244 16.8459C16.8739 16.7967 16.9133 16.7382 16.9402 16.6738C16.9672 16.6094 16.9812 16.5403 16.9814 16.4705C16.9817 16.4007 16.9681 16.3315 16.9417 16.2669C16.9152 16.2023 16.8762 16.1436 16.827 16.094Z" fill="#6FC67B"/>
</svg>
