<svg width="19" height="18" viewBox="0 0 19 18" fill="none" xmlns="http://www.w3.org/2000/svg">
<path d="M9.61643 16.4978C13.9956 16.496 17.5572 12.9335 17.559 8.55527C17.5598 6.43306 16.7344 4.43755 15.2349 2.93631C13.7353 1.435 11.7411 0.607851 9.61636 0.606934C5.23849 0.606934 1.67545 4.16978 1.67371 8.549C1.67311 9.94886 2.03885 11.3152 2.73391 12.5197L1.60712 16.6355L5.81759 15.531C6.97769 16.1638 8.28385 16.4973 9.61315 16.4978H9.61643Z" stroke="#6FC67B"/>
<path d="M13.6178 10.4443C13.5682 10.3615 13.4359 10.3118 13.2375 10.2124C13.039 10.1131 12.0633 9.63305 11.8814 9.56676C11.6995 9.50055 11.5671 9.46747 11.4349 9.66608C11.3026 9.86473 10.9222 10.3118 10.8065 10.4443C10.6907 10.5767 10.5749 10.5933 10.3765 10.4939C10.1781 10.3946 9.53861 10.185 8.78057 9.50889C8.19059 8.98264 7.79229 8.33278 7.67653 8.13409C7.56076 7.9354 7.66419 7.82803 7.76354 7.72907C7.85282 7.64012 7.96201 7.49722 8.06123 7.38137C8.16045 7.26552 8.19353 7.18268 8.25968 7.05033C8.32583 6.91782 8.29276 6.80197 8.24314 6.70262C8.19353 6.60328 7.79663 5.62643 7.63126 5.22905C7.47015 4.84207 7.30655 4.89449 7.18474 4.88838C7.06911 4.88257 6.93666 4.88135 6.80437 4.88135C6.67208 4.88135 6.45706 4.93102 6.27515 5.12971C6.09325 5.32839 5.58057 5.80853 5.58057 6.78531C5.58057 7.76216 6.29168 8.70585 6.39092 8.83828C6.49014 8.97079 7.79032 10.9753 9.78116 11.8349C10.2547 12.0394 10.6243 12.1615 10.9125 12.253C11.3879 12.4041 11.8206 12.3827 12.1625 12.3316C12.5438 12.2747 13.3367 11.8516 13.5021 11.388C13.6674 10.9243 13.6674 10.527 13.6178 10.4443Z" fill="#6FC67B"/>
</svg>
